<?xml version="1.0" encoding="utf-8"?>
<!-- Generator: Adobe Illustrator 24.1.1, SVG Export Plug-In . SVG Version: 6.00 Build 0)  -->
<svg version="1.1" id="katman_1" xmlns="http://www.w3.org/2000/svg" xmlns:xlink="http://www.w3.org/1999/xlink" x="0px" y="0px"
	 viewBox="0 0 100 35" style="enable-background:new 0 0 100 35;" xml:space="preserve">
<style type="text/css">
	.st0{fill:#E4EAEF;}
	.st1{fill:#F54B55;}
	.st2{fill:none;stroke:#FFFFFF;stroke-miterlimit:10;}
</style>
<g>
	<path class="st0" d="M55.5,5.4c1.7,0,3.4,0,5.2,0c3.8,0.1,6.5,2.1,8.1,5.5c1.5,3.4,0.9,6.6-1.5,9.5c-1,1.3-2.4,2.1-3.9,2.6
		c-0.8,0.2-0.8,0.5-0.3,1.1c1.5,1.6,3,3.2,4.5,4.8c0.2,0.2,0.5,0.3,0.4,0.6c-0.1,0.3-0.5,0.2-0.7,0.2c-2.4,0-4.8,0-7.1,0
		c-0.6,0-1-0.2-1.4-0.6c-1.4-1.7-2.8-3.4-4.2-5.1c-0.3-0.4-0.4-0.8-0.2-1.3c0.7-1.7,1.4-3.4,2-5.1c0.2-0.6,0.5-0.8,1.1-0.8
		c1,0,1.9,0,2.9,0c1.3,0,2.4-0.8,2.6-2c0.2-1.5-0.5-2.6-1.8-3c-0.4-0.1-0.9-0.1-1.4-0.1c-3.3,0-6.6,0-10,0c-0.9,0-1.2-0.3-1.1-1.1
		c0.1-1.4,0-2.9,0-4.3c0-0.7,0.3-1,1-1C51.5,5.4,53.5,5.4,55.5,5.4z"/>
	<path class="st1" d="M79.5,17.6c0,3.6,0,7.2,0,10.8c0,1.3,0,1.3-1.2,1.3c-1.6,0-3.3,0-4.9,0c-0.8,0-1.1-0.2-1.1-1
		c0-7.4,0-14.9,0-22.3c0-0.7,0.2-1.1,1-1.1c1.7,0,3.4,0,5.2,0c0.8,0,1,0.3,1,1.1C79.4,10.1,79.5,13.8,79.5,17.6z"/>
</g>
<image style="overflow:visible;" width="1181" height="1181" xlink:href="../../../../../../../Users/blizz/Downloads/Sin título-2.png"  transform="matrix(2.693939e-02 0 0 3.265997e-02 -1 -1.5714)">
</image>
<path class="st2" d="M94.1,34.1H38c-2.6,0-4.6-2.1-4.6-4.6v-24c0-2.6,2.1-4.6,4.6-4.6h56.1c2.6,0,4.6,2.1,4.6,4.6v24
	C98.7,32.1,96.6,34.1,94.1,34.1z"/>
</svg>
